<svg width="8" height="17" viewBox="0 0 8 17" fill="none" xmlns="http://www.w3.org/2000/svg">
  <path d="M7.05609 16.3636C6.96636 16.3641 6.87741 16.3469 6.79434 16.313C6.71127 16.2791 6.63571 16.2291 6.572 16.1659L1.00155 10.5954C0.684072 10.2787 0.432189 9.90255 0.260327 9.48838C0.0884646 9.07421 0 8.6302 0 8.18179C0 7.73338 0.0884646 7.28937 0.260327 6.8752C0.432189 6.46103 0.684072 6.08483 1.00155 5.76816L6.572 0.197709C6.63557 0.134138 6.71105 0.0837097 6.79411 0.049305C6.87717 0.0149003 6.96619 -0.00280762 7.05609 -0.00280762C7.146 -0.00280762 7.23502 0.0149003 7.31808 0.049305C7.40114 0.0837097 7.47661 0.134138 7.54018 0.197709C7.60376 0.261281 7.65418 0.336751 7.68859 0.419812C7.72299 0.502872 7.7407 0.591896 7.7407 0.6818C7.7407 0.771703 7.72299 0.860727 7.68859 0.943787C7.65418 1.02685 7.60376 1.10232 7.54018 1.16589L1.96973 6.73634C1.58668 7.11986 1.37153 7.63974 1.37153 8.18179C1.37153 8.72384 1.58668 9.24372 1.96973 9.62724L7.54018 15.1977C7.60409 15.2611 7.65481 15.3365 7.68943 15.4196C7.72404 15.5027 7.74187 15.5918 7.74187 15.6818C7.74187 15.7718 7.72404 15.8609 7.68943 15.944C7.65481 16.0271 7.60409 16.1025 7.54018 16.1659C7.47648 16.2291 7.40092 16.2791 7.31785 16.313C7.23478 16.3469 7.14583 16.3641 7.05609 16.3636Z" fill="currentColor" />
</svg>