<svg width="8" height="14" viewBox="0 0 8 14" fill="none" xmlns="http://www.w3.org/2000/svg">
  <path d="M0.295798 0.290915C0.202069 0.383879 0.127675 0.494479 0.0769065 0.616338C0.026138 0.738197 0 0.868903 0 1.00091C0 1.13293 0.026138 1.26363 0.0769065 1.38549C0.127675 1.50735 0.202069 1.61795 0.295798 1.71091L4.87579 6.29092C4.96952 6.38388 5.04391 6.49448 5.09468 6.61634C5.14545 6.7382 5.17159 6.8689 5.17159 7.00092C5.17159 7.13293 5.14545 7.26363 5.09468 7.38549C5.04391 7.50735 4.96952 7.61795 4.87579 7.71092L0.295798 12.2909C0.202069 12.3839 0.127675 12.4945 0.0769065 12.6163C0.026138 12.7382 0 12.8689 0 13.0009C0 13.1329 0.026138 13.2636 0.0769065 13.3855C0.127675 13.5074 0.202069 13.618 0.295798 13.7109C0.48316 13.8972 0.736611 14.0017 1.0008 14.0017C1.26498 14.0017 1.51843 13.8972 1.70579 13.7109L6.29579 9.12092C6.85759 8.55841 7.17314 7.79592 7.17314 7.00092C7.17314 6.20591 6.85759 5.44342 6.29579 4.88092L1.70579 0.290915C1.51843 0.104665 1.26498 0.000121117 1.0008 0.000121117C0.736611 0.000121117 0.48316 0.104665 0.295798 0.290915Z" fill="currentColor" />
</svg>