<svg width="8" height="14" viewBox="0 0 8 14" fill="none" xmlns="http://www.w3.org/2000/svg">
  <path d="M6.87705 0.290916C6.97078 0.383879 7.04518 0.494479 7.09595 0.616338C7.14671 0.738197 7.17285 0.868903 7.17285 1.00091C7.17285 1.13293 7.14671 1.26363 7.09595 1.38549C7.04518 1.50735 6.97078 1.61795 6.87705 1.71091L2.29706 6.29092C2.20333 6.38388 2.12894 6.49448 2.07817 6.61634C2.0274 6.7382 2.00127 6.8689 2.00127 7.00092C2.00127 7.13293 2.0274 7.26363 2.07817 7.38549C2.12894 7.50735 2.20333 7.61795 2.29706 7.71092L6.87705 12.2909C6.97078 12.3839 7.04518 12.4945 7.09595 12.6163C7.14671 12.7382 7.17285 12.8689 7.17285 13.0009C7.17285 13.1329 7.14671 13.2636 7.09595 13.3855C7.04518 13.5074 6.97078 13.618 6.87705 13.7109C6.68969 13.8972 6.43624 14.0017 6.17206 14.0017C5.90787 14.0017 5.65442 13.8972 5.46706 13.7109L0.877066 9.12092C0.315265 8.55841 -0.000292974 7.79592 -0.000292974 7.00092C-0.000292974 6.20591 0.315265 5.44342 0.877066 4.88092L5.46706 0.290916C5.65442 0.104665 5.90787 0.000121355 6.17206 0.000121355C6.43624 0.000121355 6.68969 0.104665 6.87705 0.290916V0.290916Z" fill="currentColor" />
</svg>