<svg width="8" height="17" viewBox="0 0 8 17" fill="none" xmlns="http://www.w3.org/2000/svg">
  <path d="M0.685772 16.3636C0.59604 16.3641 0.507088 16.3469 0.424017 16.313C0.340946 16.2791 0.26539 16.2291 0.201681 16.1659C0.137775 16.1025 0.0870517 16.0271 0.0524367 15.944C0.0178217 15.8609 0 15.7718 0 15.6818C0 15.5918 0.0178217 15.5027 0.0524367 15.4196C0.0870517 15.3365 0.137775 15.2611 0.201681 15.1977L5.77214 9.62724C6.15518 9.24372 6.37034 8.72384 6.37034 8.18179C6.37034 7.63974 6.15518 7.11986 5.77214 6.73634L0.201681 1.16589C0.0732918 1.0375 0.00116359 0.863369 0.00116359 0.6818C0.00116359 0.50023 0.0732918 0.326098 0.201681 0.197709C0.33007 0.0693204 0.504202 -0.00280762 0.685772 -0.00280762C0.867341 -0.00280762 1.04147 0.0693204 1.16986 0.197709L6.74032 5.76816C7.05779 6.08483 7.30968 6.46103 7.48154 6.8752C7.6534 7.28937 7.74187 7.73338 7.74187 8.18179C7.74187 8.6302 7.6534 9.07421 7.48154 9.48838C7.30968 9.90255 7.05779 10.2787 6.74032 10.5954L1.16986 16.1659C1.10615 16.2291 1.0306 16.2791 0.947526 16.313C0.864455 16.3469 0.775503 16.3641 0.685772 16.3636Z" fill="currentColor" />
</svg>