<svg width="18" height="18" viewBox="0 0 18 18" fill="none" xmlns="http://www.w3.org/2000/svg">
  <path d="M15.8492 0.292918L8.77818 7.36398L1.70711 0.292918C1.51957 0.105381 1.26522 2.44661e-05 1 2.44661e-05C0.734788 2.44661e-05 0.480434 0.105381 0.292898 0.292918V0.292918C0.105362 0.480454 4.85797e-06 0.734808 4.85797e-06 1.00002C4.85797e-06 1.26524 0.105362 1.51959 0.292898 1.70713L7.36397 8.7782L0.292898 15.8493C0.105362 16.0368 4.85797e-06 16.2912 4.85797e-06 16.5564C4.85797e-06 16.8216 0.105362 17.0759 0.292898 17.2635V17.2635C0.480434 17.451 0.734788 17.5564 1 17.5564C1.26522 17.5564 1.51957 17.451 1.70711 17.2635L8.77818 10.1924L15.8492 17.2635C16.0368 17.451 16.2911 17.5564 16.5564 17.5564C16.8216 17.5564 17.0759 17.451 17.2635 17.2635C17.451 17.0759 17.5564 16.8216 17.5564 16.5564C17.5564 16.2912 17.451 16.0368 17.2635 15.8493L10.1924 8.7782L17.2635 1.70713C17.451 1.51959 17.5564 1.26524 17.5564 1.00002C17.5564 0.734807 17.451 0.480454 17.2635 0.292918C17.0759 0.105381 16.8216 2.39182e-05 16.5564 2.39182e-05C16.2911 2.39182e-05 16.0368 0.105381 15.8492 0.292918Z" fill="currentColor" />
</svg>