<svg width="17" height="14" viewBox="0 0 17 14" fill="none" xmlns="http://www.w3.org/2000/svg">
  <path fill-rule="evenodd" clip-rule="evenodd" d="M0 1C0 0.734784 0.105357 0.48043 0.292893 0.292893C0.48043 0.105357 0.734784 0 1 0H16C16.2652 0 16.5196 0.105357 16.7071 0.292893C16.8946 0.48043 17 0.734784 17 1C17 1.26522 16.8946 1.51957 16.7071 1.70711C16.5196 1.89464 16.2652 2 16 2H1C0.734784 2 0.48043 1.89464 0.292893 1.70711C0.105357 1.51957 0 1.26522 0 1ZM0 7C0 6.73478 0.105357 6.48043 0.292893 6.29289C0.48043 6.10536 0.734784 6 1 6H10C10.2652 6 10.5196 6.10536 10.7071 6.29289C10.8946 6.48043 11 6.73478 11 7C11 7.26522 10.8946 7.51957 10.7071 7.70711C10.5196 7.89464 10.2652 8 10 8H1C0.734784 8 0.48043 7.89464 0.292893 7.70711C0.105357 7.51957 0 7.26522 0 7ZM0 13C0 12.7348 0.105357 12.4804 0.292893 12.2929C0.48043 12.1054 0.734784 12 1 12H4C4.26522 12 4.51957 12.1054 4.70711 12.2929C4.89464 12.4804 5 12.7348 5 13C5 13.2652 4.89464 13.5196 4.70711 13.7071C4.51957 13.8946 4.26522 14 4 14H1C0.734784 14 0.48043 13.8946 0.292893 13.7071C0.105357 13.5196 0 13.2652 0 13Z" fill="currentColor" />
</svg>