<svg width="53" height="53" viewBox="0 0 53 53" fill="none" xmlns="http://www.w3.org/2000/svg">
  <path d="M26.3383 0C11.7996 0 0 11.7996 0 26.3383C0 40.877 11.7996 52.6766 26.3383 52.6766C40.877 52.6766 52.6766 40.877 52.6766 26.3383C52.6766 11.7996 40.877 0 26.3383 0ZM38.5593 17.91C38.1642 22.0715 36.4522 32.1854 35.583 36.8473C35.2143 38.8227 34.4768 39.4811 33.792 39.5601C32.2644 39.6918 31.1055 38.5593 29.6306 37.5848C27.3128 36.0571 25.9959 35.109 23.7571 33.634C21.1497 31.922 22.8353 30.9738 24.3366 29.4462C24.7317 29.0511 31.4743 22.9143 31.606 22.3612C31.6243 22.2774 31.6218 22.1905 31.5989 22.1079C31.5759 22.0252 31.5331 21.9495 31.4743 21.8871C31.3162 21.7554 31.1055 21.8081 30.9212 21.8344C30.6841 21.8871 26.9968 24.3366 19.8064 29.1828C18.7529 29.894 17.8047 30.2627 16.9619 30.2364C16.0137 30.21 14.2227 29.7096 12.8794 29.2618C11.2201 28.7351 9.92954 28.4454 10.0349 27.5235C10.0876 27.0494 10.746 26.5753 11.9839 26.0749C19.6747 22.7299 24.7843 20.5175 27.3392 19.464C34.6612 16.4088 36.1625 15.882 37.1633 15.882C37.374 15.882 37.8745 15.9347 38.1905 16.1981C38.4539 16.4088 38.5329 16.6985 38.5593 16.9092C38.5329 17.0672 38.5856 17.5413 38.5593 17.91Z" fill="currentColor" />
</svg>